<!-- Generated by IcoMoon.io -->
<svg version="1.1" xmlns="http://www.w3.org/2000/svg" width="1024" height="1024" viewBox="0 0 1024 1024">
<g id="icomoon-ignore">
</g>
<path fill="#000" d="M153.583 256.033c0-13.579 5.394-26.602 14.996-36.204s22.625-14.996 36.204-14.996h614.4c13.581 0 26.603 5.394 36.203 14.996 9.604 9.602 14.997 22.625 14.997 36.204s-5.393 26.602-14.997 36.204c-9.6 9.602-22.622 14.996-36.203 14.996h-614.4c-13.579 0-26.602-5.394-36.204-14.996s-14.996-22.625-14.996-36.204z"></path>
<path fill="#000" d="M153.583 512.034c0-13.581 5.394-26.603 14.996-36.203 9.602-9.604 22.625-14.997 36.204-14.997h614.4c13.581 0 26.603 5.393 36.203 14.997 9.604 9.6 14.997 22.622 14.997 36.203 0 13.577-5.393 26.603-14.997 36.203-9.6 9.604-22.622 14.997-36.203 14.997h-614.4c-13.579 0-26.602-5.393-36.204-14.997-9.602-9.6-14.996-22.626-14.996-36.203z"></path>
<path fill="#000" d="M153.583 768.034c0-13.581 5.394-26.603 14.996-36.203 9.602-9.604 22.625-14.997 36.204-14.997h614.4c13.581 0 26.603 5.393 36.203 14.997 9.604 9.6 14.997 22.622 14.997 36.203 0 13.577-5.393 26.603-14.997 36.203-9.6 9.604-22.622 14.997-36.203 14.997h-614.4c-13.579 0-26.602-5.393-36.204-14.997-9.602-9.6-14.996-22.626-14.996-36.203z"></path>
</svg>
